<?xml version="1.0" encoding="UTF-8"?>
<svg width="752pt" height="752pt" version="1.1" viewBox="0 0 752 752" xmlns="http://www.w3.org/2000/svg">
 <g fill="#fff">
  <path d="m374.11 171.89c114.61 0 207.9 93.297 207.9 207.9 0 114.61-92.82 208.38-207.9 208.38-114.61 0-207.9-93.297-207.9-207.9s93.297-208.38 207.9-208.38m0-24.152c-128.34 0-232.05 103.71-232.05 232.05 0 128.34 103.71 232.05 232.05 232.05 128.34 0 232.05-103.71 232.05-232.05 0-128.34-103.71-232.05-232.05-232.05z"/>
  <path d="m270.39 367.95h207.9v24.152h-207.9z"/>
  <path d="m362.27 276.07h24.152v207.9h-24.152z"/>
 </g>
</svg>
