<?xml version="1.0" encoding="UTF-8"?>
<svg width="752pt" height="752pt" version="1.1" viewBox="0 0 752 752" xmlns="http://www.w3.org/2000/svg">
 <path d="m186.57 196.04c-5.2305 0-9.4727 4.2422-9.4727 9.4727s4.2422 9.4727 9.4727 9.4727h49.133l49.875 235.61c1.2109 5.8203 5.0977 10.719 9.9141 10.656h236.79c5.0039 0.070312 9.6211-4.4688 9.6211-9.4727 0-5.0039-4.6172-9.543-9.6211-9.4727h-229.09l-50.465-238.86c-0.9375-4.1875-5.0352-7.4375-9.3242-7.3984zm94.715 56.828 28.414 142.07h232.05l33.152-142.07zm61.566 236.79c-18.309 0-33.152 14.844-33.152 33.152s14.844 33.152 33.152 33.152c18.309 0 33.152-14.844 33.152-33.152s-14.844-33.152-33.152-33.152zm142.07 0c-18.309 0-33.152 14.844-33.152 33.152s14.844 33.152 33.152 33.152c18.309 0 33.152-14.844 33.152-33.152s-14.844-33.152-33.152-33.152z" fill="#fff"/>
</svg>
