<?xml version="1.0" encoding="UTF-8"?>
<svg width="752pt" height="752pt" version="1.1" viewBox="0 0 752 752" xmlns="http://www.w3.org/2000/svg">
 <g fill="#fff">
  <path d="m600.95 289.81c0-58.25-47.832-106.08-106.55-106.08-58.723 0-106.55 47.832-106.55 106.55 0 4.7344 0.47266 8.9961 0.94531 13.262h-132.13l-8.5234-45.465c-1.4219-7.1055-7.5781-12.312-15.156-12.312h-66.777c-8.5234 0-15.156 6.6289-15.156 15.156 0 8.5234 6.6289 15.156 15.156 15.156h54.461l38.359 205.54c-7.5781 8.9961-12.312 20.836-12.312 33.625 0 29.363 24.152 53.516 53.516 53.516 28.887 0 52.566-23.207 53.043-52.094h60.617c0.94531 28.887 24.152 52.094 53.043 52.094 29.363 0 53.516-24.152 53.516-53.516 0-12.312-4.2617-23.207-11.367-32.203l18.469-91.875c43.098-14.211 73.406-54.465 73.406-101.35zm-106.55-75.773c41.676 0 75.773 34.098 75.773 75.773 0 41.676-34.098 75.773-75.773 75.773-41.676 0-75.773-34.098-75.773-75.773 0-41.676 34.098-75.773 75.773-75.773zm-194.17 323.93c-12.785 0-22.73-10.418-22.73-22.73s10.418-22.73 22.73-22.73c12.785 0 22.73 10.418 22.73 22.73 0.003907 12.312-9.9414 22.73-22.73 22.73zm167.18 0c-12.785 0-22.73-10.418-22.73-22.73s10.418-22.73 22.73-22.73c12.785 0 22.73 10.418 22.73 22.73s-9.9453 22.73-22.73 22.73zm14.68-73.879c-4.7344-1.4219-9.4727-2.3672-14.68-2.3672-18.469 0-35.047 9.9453-44.516 24.152h-77.668c-9.4727-14.68-26.047-24.152-44.516-24.152-4.7344 0-8.9961 0.94531-13.734 1.8945l-24.625-129.76h135.45c16.574 36.941 53.984 62.516 96.609 62.516h1.4219z"/>
  <path d="m457.93 305.44h21.312v21.312c0 8.5234 6.6289 15.156 15.156 15.156 8.5234 0 15.156-6.6289 15.156-15.156v-21.312h21.312c8.5234 0 15.156-6.6289 15.156-15.156 0-8.5234-6.6289-15.156-15.156-15.156h-21.312v-21.312c0-8.5234-6.6289-15.156-15.156-15.156-8.5234 0-15.156 6.6289-15.156 15.156v21.312h-21.312c-8.5234 0-15.156 6.6289-15.156 15.156 0.003906 8.0547 6.6328 15.156 15.156 15.156z"/>
 </g>
</svg>
