<?xml version="1.0" encoding="UTF-8"?>
<svg width="752pt" height="752pt" version="1.1" viewBox="0 0 752 752" xmlns="http://www.w3.org/2000/svg">
 <path d="m376 158.95c-119.64 0-217.05 97.41-217.05 217.05s97.41 217.06 217.05 217.06 217.06-97.414 217.06-217.06-97.414-217.05-217.06-217.05zm0 39.465c98.316 0 177.59 79.277 177.59 177.59s-79.277 177.59-177.59 177.59c-98.312-0.003906-177.59-79.281-177.59-177.6 0-98.312 79.277-177.59 177.59-177.59zm-48.828 109.03c-5.2656 0.003906-10.312 2.1055-14.016 5.8477-3.7031 3.7383-5.7617 8.8047-5.7148 14.066 0.050782 5.2656 2.1992 10.293 5.9727 13.965l34.684 34.684-34.684 34.688c-3.8242 3.6719-6.0117 8.7305-6.0625 14.035-0.054687 5.3008 2.0273 10.402 5.7773 14.152 3.75 3.7461 8.8516 5.832 14.152 5.7773 5.3047-0.054688 10.359-2.2383 14.035-6.0625l34.684-34.684 34.688 34.688v-0.003906c3.6719 3.8242 8.7305 6.0078 14.035 6.0625 5.3008 0.054687 10.402-2.0312 14.152-5.7773 3.7461-3.75 5.832-8.8516 5.7773-14.152-0.054688-5.3047-2.2383-10.363-6.0625-14.035l-34.684-34.688 34.684-34.684c3.8242-3.7188 5.9805-8.8242 5.9805-14.16-0.003906-5.332-2.1641-10.438-5.9922-14.152-3.8242-3.7148-8.9922-5.7227-14.324-5.5664-5.125 0.15234-9.9922 2.2969-13.566 5.9766l-34.688 34.684-34.684-34.684c-3.7148-3.8203-8.8164-5.9766-14.145-5.9766z" fill="#fff" fill-rule="evenodd"/>
</svg>
