<?xml version="1.0" encoding="UTF-8"?>
<svg width="752pt" height="752pt" version="1.1" viewBox="0 0 752 752" xmlns="http://www.w3.org/2000/svg">
 <path d="m204.63 440.02 30.754-185.07 177.8-63.742 130.84 131.39-23.484 183.39-170.54 54.793-145.38-120.77zm73.805-93.375c-5.5898-3.9141-15.098 0-21.246 8.3867-6.1523 8.3867-6.7109 18.453-1.1172 22.363 5.5898 3.9141 15.098 0.55859 21.246-8.3867 6.1523-8.3867 6.1523-18.453 1.1172-22.363zm43.055-47.527c-5.5898-3.9141-14.539 0-20.688 8.3867-6.1523 8.3867-6.7109 18.453-1.1172 22.363 5.5898 3.9141 15.098 0.55859 21.246-7.8281 5.5898-8.9453 6.1523-19.012 0.55859-22.926zm45.289-54.234c-5.5898-3.9141-15.098 0-21.246 8.3867-6.1523 8.3867-6.1523 18.453-0.55859 22.363 5.0312 3.9141 14.539 0.55859 20.688-7.8281 6.1523-8.9453 6.7109-19.012 1.1172-22.926zm80.516 35.227c5.5898-3.9141 14.539 0 20.688 8.3867 6.1523 8.3867 6.7109 18.453 1.1172 22.363-5.5898 3.9141-15.098 0.55859-21.246-7.8281-5.5898-8.9453-6.1523-19.012-0.55859-22.926zm39.141 39.141c5.0312-3.9141 14.539-0.55859 20.688 7.8281 6.1523 8.3867 6.7109 18.453 1.1172 22.363-5.5898 3.9141-15.098 0.55859-21.246-7.8281-6.1523-8.3867-6.1523-18.453-0.55859-22.363zm-9.5039 63.742c5.0312-3.9141 14.539 0 20.688 8.3867 6.1523 8.3867 6.7109 18.453 1.1172 22.363-5.5898 3.9141-15.098 0.55859-21.246-8.3867-6.1523-8.3867-6.1523-18.453-0.55859-22.363zm-45.289-38.02c5.5898-4.4727 15.098-0.55859 21.246 7.8281 6.1523 8.3867 6.1523 18.453 0.55859 22.363-5.0312 3.9141-14.539 0.55859-20.688-7.8281-6.1523-8.3867-6.7109-18.453-1.1172-22.363zm-129.16 98.965c6.7109-3.9141 15.098-2.2383 17.891 3.3555 3.3555 5.5898 0 13.418-6.7109 16.773-7.2695 3.9141-15.098 2.2383-18.453-3.3555-2.7969-5.5898 0-13.418 7.2695-16.773zm46.965-19.012c6.7109-3.9141 15.098-2.2383 17.891 3.3555 3.3555 5.5898 0 13.418-6.7109 16.773-6.7109 3.9141-15.098 2.7969-18.453-3.3555-2.7969-5.5898 0-12.859 7.2695-16.773zm-16.215 42.492c7.2695-3.9141 15.098-2.7969 18.453 3.3555 2.7969 5.5898 0 12.859-7.2695 16.773-6.7109 3.9141-15.098 2.2383-17.891-3.3555-3.3555-5.5898 0-13.418 6.7109-16.773zm46.965-19.012c7.2695-3.9141 15.098-2.2383 18.453 3.3555 2.7969 5.5898 0 13.418-6.7109 16.773-7.2695 3.9141-15.098 2.7969-18.453-3.3555-3.3555-5.5898 0-12.859 6.7109-16.773zm-15.656 46.406c7.2695-3.9141 15.098-2.2383 18.453 3.3555 2.7969 5.5898 0 13.418-6.7109 17.332-7.2695 3.9141-15.098 2.2383-18.453-3.3555-3.3555-5.5898 0-13.418 6.7109-17.332zm46.965-19.012c7.2695-3.3555 15.098-2.2383 18.453 3.3555 3.3555 5.5898 0 13.418-6.7109 17.332-7.2695 3.9141-15.098 2.2383-18.453-3.3555-2.7969-5.5898 0-13.418 6.7109-17.332zm-39.141-112.38 19.57-143.14-139.22 50.32-21.246 140.9 140.9-48.086zm35.227 8.9453 16.773-148.17 102.88 105.12-17.332 140.34zm-174.45 65.418 151.52-51.441 114.06 110.15-142.58 46.406-123.01-105.12z" fill="#fff" fill-rule="evenodd"/>
</svg>
